<svg width="353" height="349" viewBox="0 0 353 349" fill="none" xmlns="http://www.w3.org/2000/svg">
<g filter="url(#filter0_d_101_34)">
<path d="M91.8738 0H249.372C273.738 0 297.107 9.6766 314.336 26.9011C331.566 44.1255 341.246 67.4869 341.246 91.846C341.246 98.8057 338.48 105.48 333.557 110.402C328.634 115.323 321.958 118.088 314.996 118.088H26.2497C19.2878 118.088 12.6111 115.323 7.68835 110.402C2.76558 105.48 0 98.8057 0 91.846C0 67.4869 9.67953 44.1255 26.9092 26.9011C44.1389 9.6766 67.5074 0 91.8738 0Z" fill="#FAA01E"/>
<path d="M26.2497 262.211H314.996C321.958 262.211 328.634 264.993 333.557 269.945C338.48 274.897 341.246 281.614 341.246 288.618C341.246 299.123 337.097 309.198 329.713 316.626C322.329 324.055 312.314 328.228 301.871 328.228H39.3745C28.9317 328.228 18.9167 324.055 11.5325 316.626C4.14837 309.198 0 299.123 0 288.618C0 281.614 2.76558 274.897 7.68835 269.945C12.6111 264.993 19.2878 262.211 26.2497 262.211Z" fill="#FAA01E"/>
<path d="M328.121 236.175H13.1248C5.87619 236.175 0 242.004 0 249.193C0 256.382 5.87619 262.211 13.1248 262.211H328.121C335.369 262.211 341.246 256.382 341.246 249.193C341.246 242.004 335.369 236.175 328.121 236.175Z" fill="#FACC0A"/>
<path d="M315.211 236.175L300.679 243.372C292.947 247.2 284.422 249.193 275.778 249.193C267.133 249.193 258.608 247.2 250.876 243.372L248.101 241.997C240.37 238.169 231.844 236.176 223.2 236.175C214.556 236.176 206.031 238.169 198.299 241.997L195.524 243.372C187.792 247.2 179.267 249.193 170.623 249.193C161.979 249.193 153.453 247.2 145.722 243.372L142.947 241.997C135.215 238.169 126.69 236.176 118.045 236.175C109.401 236.176 100.876 238.169 93.1443 241.997L90.3692 243.372C82.6376 247.2 74.1122 249.193 65.4681 249.193C56.824 249.193 48.2987 247.2 40.567 243.372L26.0351 236.175V223.158H315.211V236.175Z" fill="#3C915A"/>
<path d="M315.094 170.158H26.1513C18.8977 170.158 13.0175 176.09 13.0175 183.408V209.908C13.0175 217.226 18.8977 223.158 26.1513 223.158H315.094C322.348 223.158 328.228 217.226 328.228 209.908V183.408C328.228 176.09 322.348 170.158 315.094 170.158Z" fill="#DC6E1E"/>
<path d="M315.068 170.158H157.14C160.631 170.158 163.978 171.554 166.446 174.039C168.914 176.524 170.301 179.894 170.301 183.408V209.908C170.301 213.422 168.914 216.792 166.446 219.277C163.978 221.762 160.631 223.158 157.14 223.158H315.068C318.558 223.158 321.905 221.762 324.373 219.277C326.842 216.792 328.228 213.422 328.228 209.908V183.408C328.228 179.894 326.842 176.524 324.373 174.039C321.905 171.554 318.558 170.158 315.068 170.158Z" fill="#BE5000"/>
<path d="M0 157.248C0 160.729 1.38279 164.067 3.84417 166.529C6.30556 168.99 9.64391 170.373 13.1248 170.373H178.311C181.792 170.373 185.13 171.756 187.592 174.217L217.686 204.312C222.609 209.234 229.285 212 236.247 212C243.209 212 249.885 209.234 254.808 204.312L284.902 174.217C287.364 171.756 290.702 170.373 294.182 170.373H328.121C331.602 170.373 334.94 168.99 337.401 166.529C339.863 164.067 341.246 160.729 341.246 157.248C341.246 153.767 339.863 150.428 337.401 147.967C334.94 145.506 331.602 144.123 328.121 144.123H13.1248C9.64391 144.123 6.30556 145.506 3.84417 147.967C1.38279 150.428 0 153.767 0 157.248Z" fill="#FACC0A"/>
<path d="M302.066 118.088H39.1794C31.92 118.088 26.0351 123.916 26.0351 131.105C26.0351 138.295 31.92 144.123 39.1794 144.123H302.066C309.326 144.123 315.211 138.295 315.211 131.105C315.211 123.916 309.326 118.088 302.066 118.088Z" fill="#73C369"/>
<path d="M302.038 118.088H157.14C160.634 118.088 163.984 119.459 166.455 121.9C168.925 124.342 170.313 127.653 170.313 131.105C170.313 134.558 168.925 137.869 166.455 140.31C163.984 142.751 160.634 144.123 157.14 144.123H302.038C305.532 144.123 308.882 142.751 311.352 140.31C313.823 137.869 315.211 134.558 315.211 131.105C315.211 127.653 313.823 124.342 311.352 121.9C308.882 119.459 305.532 118.088 302.038 118.088Z" fill="#3C915A"/>
<path d="M249.372 78.7252C249.372 82.205 247.989 85.5424 245.528 88.003C243.066 90.4636 239.728 91.846 236.247 91.846H0C0 98.8057 2.76558 105.48 7.68835 110.402C12.6111 115.323 19.2878 118.088 26.2497 118.088H314.996C321.958 118.088 328.634 115.323 333.557 110.402C338.48 105.48 341.246 98.8057 341.246 91.846C341.246 67.4869 331.566 44.1255 314.336 26.9011C297.107 9.6766 273.738 0 249.372 0H170.623C191.508 0 211.538 8.29424 226.307 23.0581C241.075 37.8219 249.372 57.8459 249.372 78.7252Z" fill="#DC6E1E"/>
<path d="M249.372 262.211C249.372 269.214 246.606 275.931 241.683 280.883C236.761 285.835 230.084 288.618 223.122 288.618H0C0 299.123 4.14837 309.198 11.5325 316.626C18.9167 324.055 28.9317 328.228 39.3745 328.228H301.871C312.314 328.228 322.329 324.055 329.713 316.626C337.097 309.198 341.246 299.123 341.246 288.618C341.246 281.614 338.48 274.897 333.557 269.945C328.634 264.993 321.958 262.211 314.996 262.211H249.372Z" fill="#DC6E1E"/>
<path d="M170.623 26.0351C174.474 26.0351 177.596 23.121 177.596 19.5263C177.596 15.9316 174.474 13.0175 170.623 13.0175C166.771 13.0175 163.649 15.9316 163.649 19.5263C163.649 23.121 166.771 26.0351 170.623 26.0351Z" fill="#FAF0DC"/>
<path d="M210.14 59.5088C213.735 59.5088 216.649 56.3865 216.649 52.5351C216.649 48.6836 213.735 45.5614 210.14 45.5614C206.546 45.5614 203.632 48.6836 203.632 52.5351C203.632 56.3865 206.546 59.5088 210.14 59.5088Z" fill="#FAF0DC"/>
<path d="M92.0527 26.0351C95.6474 26.0351 98.5614 23.121 98.5614 19.5263C98.5614 15.9316 95.6474 13.0175 92.0527 13.0175C88.458 13.0175 85.5439 15.9316 85.5439 19.5263C85.5439 23.121 88.458 26.0351 92.0527 26.0351Z" fill="#FAF0DC"/>
<path d="M131.105 59.5088C134.7 59.5088 137.614 56.3865 137.614 52.5351C137.614 48.6836 134.7 45.5614 131.105 45.5614C127.511 45.5614 124.596 48.6836 124.596 52.5351C124.596 56.3865 127.511 59.5088 131.105 59.5088Z" fill="#FAF0DC"/>
<path d="M249.193 26.0351C252.788 26.0351 255.702 23.121 255.702 19.5263C255.702 15.9316 252.788 13.0175 249.193 13.0175C245.598 13.0175 242.684 15.9316 242.684 19.5263C242.684 23.121 245.598 26.0351 249.193 26.0351Z" fill="#FAA01E"/>
</g>
<defs>
<filter id="filter0_d_101_34" x="0" y="0" width="352.246" height="348.228" filterUnits="userSpaceOnUse" color-interpolation-filters="sRGB">
<feFlood flood-opacity="0" result="BackgroundImageFix"/>
<feColorMatrix in="SourceAlpha" type="matrix" values="0 0 0 0 0 0 0 0 0 0 0 0 0 0 0 0 0 0 127 0" result="hardAlpha"/>
<feOffset dx="11" dy="20"/>
<feComposite in2="hardAlpha" operator="out"/>
<feColorMatrix type="matrix" values="0 0 0 0 0.0705882 0 0 0 0 0.152941 0 0 0 0 0.309804 0 0 0 1 0"/>
<feBlend mode="normal" in2="BackgroundImageFix" result="effect1_dropShadow_101_34"/>
<feBlend mode="normal" in="SourceGraphic" in2="effect1_dropShadow_101_34" result="shape"/>
</filter>
</defs>
</svg>
