<svg width="50" height="49" viewBox="0 0 50 49" fill="none" xmlns="http://www.w3.org/2000/svg">
<path d="M25 28.7875C22.6562 28.7875 20.625 26.95 20.625 24.5C20.625 22.2031 22.5 20.2125 25 20.2125C27.3438 20.2125 29.375 22.05 29.375 24.5C29.375 26.7969 27.3438 28.7875 25 28.7875Z" fill="#00FF75"/>
<path fill-rule="evenodd" clip-rule="evenodd" d="M30.3125 14.0875H19.6875C18.4375 14.2406 17.8125 14.3937 17.3438 14.5469C16.7188 14.7 16.25 15.0062 15.7813 15.4656C15.4103 15.8291 15.2351 16.1926 15.0233 16.632C14.9674 16.7478 14.9089 16.8692 14.8438 16.9969C14.8196 17.0679 14.7917 17.1427 14.7618 17.2228C14.5983 17.6604 14.375 18.2583 14.375 19.2937V29.7062C14.5313 30.9312 14.6875 31.5437 14.8438 32.0031C15 32.6156 15.3125 33.075 15.7813 33.5344C16.1522 33.8979 16.5231 34.0696 16.9714 34.2772C17.0897 34.332 17.2133 34.3892 17.3438 34.4531C17.4163 34.4768 17.4925 34.5042 17.5742 34.5335C18.0208 34.6937 18.6309 34.9125 19.6875 34.9125H30.3125C31.5625 34.7594 32.1875 34.6062 32.6562 34.4531C33.2812 34.3 33.75 33.9937 34.2187 33.5344C34.5897 33.1709 34.7649 32.8074 34.9767 32.368C35.0326 32.2522 35.091 32.1309 35.1562 32.0031C35.1804 31.9321 35.2083 31.8573 35.2382 31.7772C35.4017 31.3396 35.625 30.7417 35.625 29.7062V19.2937C35.4687 18.0687 35.3125 17.4562 35.1562 16.9969C35 16.3844 34.6875 15.925 34.2187 15.4656C33.8478 15.1021 33.4769 14.9304 33.0286 14.7228C32.9105 14.6681 32.7865 14.6107 32.6562 14.5469C32.5837 14.5232 32.5075 14.4958 32.4258 14.4665C31.9792 14.3063 31.3691 14.0875 30.3125 14.0875ZM25 17.9156C21.25 17.9156 18.2812 20.825 18.2812 24.5C18.2812 28.175 21.25 31.0844 25 31.0844C28.75 31.0844 31.7187 28.175 31.7187 24.5C31.7187 20.825 28.75 17.9156 25 17.9156ZM33.4375 17.7625C33.4375 18.6082 32.7379 19.2937 31.875 19.2937C31.0121 19.2937 30.3125 18.6082 30.3125 17.7625C30.3125 16.9168 31.0121 16.2312 31.875 16.2312C32.7379 16.2312 33.4375 16.9168 33.4375 17.7625Z" fill="#00FF75"/>
<path fill-rule="evenodd" clip-rule="evenodd" d="M0 7.65625C0 3.42782 3.49778 0 7.8125 0H42.1875C46.5022 0 50 3.42782 50 7.65625V41.3438C50 45.5722 46.5022 49 42.1875 49H7.8125C3.49778 49 0 45.5722 0 41.3438V7.65625ZM19.6875 11.7906H30.3125C31.7187 11.9437 32.6562 12.0969 33.4375 12.4031C34.375 12.8625 35 13.1687 35.7812 13.9344C36.5625 14.7 37.0313 15.4656 37.3438 16.2312C37.6563 16.9969 37.9687 17.9156 37.9687 19.2937V29.7062C37.8125 31.0844 37.6563 32.0031 37.3438 32.7687C36.875 33.6875 36.5625 34.3 35.7812 35.0656C35 35.8312 34.2187 36.2906 33.4375 36.5969C32.6562 36.9031 31.7187 37.2094 30.3125 37.2094H19.6875C18.2813 37.0562 17.3438 36.9031 16.5625 36.5969C15.625 36.1375 15 35.8312 14.2188 35.0656C13.4375 34.3 12.9688 33.5344 12.6563 32.7687C12.3438 32.0031 12.0312 31.0844 12.0312 29.7062V19.2937C12.1875 17.9156 12.3438 16.9969 12.6563 16.2312C13.125 15.3125 13.4375 14.7 14.2188 13.9344C15 13.1687 15.7813 12.7094 16.5625 12.4031C17.3438 12.0969 18.2813 11.7906 19.6875 11.7906Z" fill="#00FF75"/>
</svg>
