<svg width="150" height="60" viewBox="0 0 150 60" fill="none" xmlns="http://www.w3.org/2000/svg">
<g filter="url(#filter0_d_101_8)">
<path d="M145.452 10.233L115.769 29.7981L105.393 48.1254L89.8826 45.4544L99.7401 27.1663L101.673 3.65754L119.335 4.64271L115.379 17.8422L130.264 6.52481L145.452 10.233Z" fill="#00FF75"/>
</g>
<g filter="url(#filter1_d_101_8)">
<path d="M21.4414 5.79865C21.3555 7.145 21.2767 8.47703 21.2051 9.79474C21.1335 11.1124 21.0404 12.4445 20.9258 13.7908L11.8164 14.2635V16.9705H19.7227L19.293 23.6307L11.7734 23.8455L11.8164 36.5643L0.945312 36.7791L1.63281 5.79865H21.4414ZM48.6621 20.3221C48.6621 21.6255 48.5117 22.8859 48.2109 24.1033C47.9102 25.3065 47.4733 26.438 46.9004 27.4979C46.3418 28.5578 45.6543 29.5317 44.8379 30.4197C44.0358 31.2934 43.1263 32.0454 42.1094 32.6756C41.1068 33.3058 40.0111 33.7999 38.8223 34.158C37.6335 34.5018 36.373 34.6736 35.041 34.6736C33.752 34.6736 32.5202 34.5089 31.3457 34.1795C30.1855 33.8501 29.097 33.3917 28.0801 32.8045C27.0632 32.2029 26.1393 31.4868 25.3086 30.6561C24.4922 29.811 23.7904 28.88 23.2031 27.8631C22.6302 26.8318 22.179 25.729 21.8496 24.5545C21.5345 23.38 21.377 22.1554 21.377 20.8807C21.377 19.6346 21.5273 18.4171 21.8281 17.2283C22.1289 16.0252 22.5586 14.8937 23.1172 13.8338C23.6901 12.7739 24.3776 11.7999 25.1797 10.9119C25.9818 10.0239 26.877 9.25763 27.8652 8.6131C28.8678 7.96857 29.9492 7.46726 31.1094 7.10919C32.2695 6.75112 33.4941 6.57208 34.7832 6.57208C36.86 6.57208 38.7507 6.89435 40.4551 7.53888C42.1738 8.18341 43.6348 9.10724 44.8379 10.3104C46.0553 11.4992 46.9935 12.9458 47.6523 14.6502C48.3255 16.3403 48.6621 18.2309 48.6621 20.3221ZM39.123 20.8807C39.123 20.2648 39.0299 19.6704 38.8438 19.0975C38.6719 18.5102 38.4141 17.9946 38.0703 17.5506C37.7266 17.0923 37.2969 16.727 36.7812 16.4549C36.2799 16.1684 35.6999 16.0252 35.041 16.0252C34.3678 16.0252 33.7663 16.147 33.2363 16.3904C32.7064 16.6339 32.248 16.9705 31.8613 17.4002C31.4889 17.8156 31.2025 18.3097 31.002 18.8826C30.8014 19.4412 30.7012 20.0356 30.7012 20.6658C30.7012 21.2674 30.7871 21.869 30.959 22.4705C31.1309 23.0721 31.3887 23.6164 31.7324 24.1033C32.0762 24.5903 32.4987 24.9842 33 25.285C33.5156 25.5858 34.11 25.7361 34.7832 25.7361C35.4564 25.7361 36.0579 25.6072 36.5879 25.3494C37.1322 25.0773 37.5905 24.7192 37.9629 24.2752C38.3353 23.8169 38.6217 23.2941 38.8223 22.7068C39.0228 22.1196 39.123 21.5109 39.123 20.8807ZM76.7207 20.3221C76.7207 21.6255 76.5703 22.8859 76.2695 24.1033C75.9688 25.3065 75.5319 26.438 74.959 27.4979C74.4004 28.5578 73.7129 29.5317 72.8965 30.4197C72.0944 31.2934 71.1849 32.0454 70.168 32.6756C69.1654 33.3058 68.0697 33.7999 66.8809 34.158C65.6921 34.5018 64.4316 34.6736 63.0996 34.6736C61.8105 34.6736 60.5788 34.5089 59.4043 34.1795C58.2441 33.8501 57.1556 33.3917 56.1387 32.8045C55.1217 32.2029 54.1979 31.4868 53.3672 30.6561C52.5508 29.811 51.849 28.88 51.2617 27.8631C50.6888 26.8318 50.2376 25.729 49.9082 24.5545C49.5931 23.38 49.4355 22.1554 49.4355 20.8807C49.4355 19.6346 49.5859 18.4171 49.8867 17.2283C50.1875 16.0252 50.6172 14.8937 51.1758 13.8338C51.7487 12.7739 52.4362 11.7999 53.2383 10.9119C54.0404 10.0239 54.9355 9.25763 55.9238 8.6131C56.9264 7.96857 58.0078 7.46726 59.168 7.10919C60.3281 6.75112 61.5527 6.57208 62.8418 6.57208C64.9186 6.57208 66.8092 6.89435 68.5137 7.53888C70.2324 8.18341 71.6934 9.10724 72.8965 10.3104C74.1139 11.4992 75.0521 12.9458 75.7109 14.6502C76.3841 16.3403 76.7207 18.2309 76.7207 20.3221ZM67.1816 20.8807C67.1816 20.2648 67.0885 19.6704 66.9023 19.0975C66.7305 18.5102 66.4727 17.9946 66.1289 17.5506C65.7852 17.0923 65.3555 16.727 64.8398 16.4549C64.3385 16.1684 63.7585 16.0252 63.0996 16.0252C62.4264 16.0252 61.8249 16.147 61.2949 16.3904C60.765 16.6339 60.3066 16.9705 59.9199 17.4002C59.5475 17.8156 59.2611 18.3097 59.0605 18.8826C58.86 19.4412 58.7598 20.0356 58.7598 20.6658C58.7598 21.2674 58.8457 21.869 59.0176 22.4705C59.1895 23.0721 59.4473 23.6164 59.791 24.1033C60.1348 24.5903 60.5573 24.9842 61.0586 25.285C61.5742 25.5858 62.1686 25.7361 62.8418 25.7361C63.515 25.7361 64.1165 25.6072 64.6465 25.3494C65.1908 25.0773 65.6491 24.7192 66.0215 24.2752C66.3939 23.8169 66.6803 23.2941 66.8809 22.7068C67.0814 22.1196 67.1816 21.5109 67.1816 20.8807ZM102.566 19.7205C102.566 21.7257 102.309 23.5233 101.793 25.1131C101.277 26.7029 100.554 28.1137 99.623 29.3455C98.7064 30.563 97.6107 31.6014 96.3359 32.4608C95.0612 33.3201 93.6647 34.0291 92.1465 34.5877C90.6283 35.132 89.0098 35.533 87.291 35.7908C85.5866 36.0486 83.832 36.1776 82.0273 36.1776C81.3542 36.1776 80.6953 36.1632 80.0508 36.1346C79.4062 36.0916 78.7474 36.0343 78.0742 35.9627L78.6758 7.99005C80.2513 7.48875 81.8698 7.13784 83.5312 6.93732C85.207 6.72247 86.8685 6.61505 88.5156 6.61505C90.5638 6.61505 92.4473 6.90151 94.166 7.47443C95.8848 8.04734 97.3672 8.8924 98.6133 10.0096C99.8594 11.1124 100.826 12.4803 101.514 14.1131C102.215 15.7316 102.566 17.6007 102.566 19.7205ZM87.957 27.9705C88.8164 27.8416 89.597 27.5838 90.2988 27.1971C91.015 26.796 91.6309 26.3091 92.1465 25.7361C92.6621 25.1489 93.056 24.4901 93.3281 23.7596C93.6146 23.0148 93.7578 22.227 93.7578 21.3963C93.7578 20.5799 93.6719 19.8208 93.5 19.119C93.3281 18.4028 93.0488 17.7869 92.6621 17.2713C92.2754 16.7414 91.7669 16.326 91.1367 16.0252C90.5065 15.7101 89.7331 15.5382 88.8164 15.5096L87.957 27.9705Z" fill="white"/>
</g>
<defs>
<filter id="filter0_d_101_8" x="76.9169" y="1.76886" width="73.0529" height="57.6024" filterUnits="userSpaceOnUse" color-interpolation-filters="sRGB">
<feFlood flood-opacity="0" result="BackgroundImageFix"/>
<feColorMatrix in="SourceAlpha" type="matrix" values="0 0 0 0 0 0 0 0 0 0 0 0 0 0 0 0 0 0 127 0" result="hardAlpha"/>
<feOffset dy="4"/>
<feGaussianBlur stdDeviation="2"/>
<feComposite in2="hardAlpha" operator="out"/>
<feColorMatrix type="matrix" values="0 0 0 0 0 0 0 0 0 0 0 0 0 0 0 0 0 0 0.25 0"/>
<feBlend mode="normal" in2="BackgroundImageFix" result="effect1_dropShadow_101_8"/>
<feBlend mode="normal" in="SourceGraphic" in2="effect1_dropShadow_101_8" result="shape"/>
</filter>
<filter id="filter1_d_101_8" x="0.945312" y="3.79865" width="105.621" height="34.9805" filterUnits="userSpaceOnUse" color-interpolation-filters="sRGB">
<feFlood flood-opacity="0" result="BackgroundImageFix"/>
<feColorMatrix in="SourceAlpha" type="matrix" values="0 0 0 0 0 0 0 0 0 0 0 0 0 0 0 0 0 0 127 0" result="hardAlpha"/>
<feOffset dx="2"/>
<feGaussianBlur stdDeviation="1"/>
<feComposite in2="hardAlpha" operator="out"/>
<feColorMatrix type="matrix" values="0 0 0 0 0 0 0 0 0 0 0 0 0 0 0 0 0 0 0.5 0"/>
<feBlend mode="normal" in2="BackgroundImageFix" result="effect1_dropShadow_101_8"/>
<feBlend mode="normal" in="SourceGraphic" in2="effect1_dropShadow_101_8" result="shape"/>
</filter>
</defs>
</svg>
