<svg width="50" height="49" viewBox="0 0 50 49" fill="none" xmlns="http://www.w3.org/2000/svg">
<path fill-rule="evenodd" clip-rule="evenodd" d="M7.8125 0H42.1875C46.5022 0 50 3.42782 50 7.65625V41.3438C50 45.5722 46.5022 49 42.1875 49H7.8125C3.49778 49 0 45.5722 0 41.3438V7.65625C0 3.42782 3.49778 0 7.8125 0ZM26.081 18.3863C23.842 19.299 19.367 21.188 12.6561 24.0533C11.5664 24.478 10.9955 24.8935 10.9436 25.2997C10.8557 25.9863 11.733 26.2566 12.9277 26.6248C13.0902 26.6749 13.2586 26.7267 13.4312 26.7817C14.6066 27.1562 16.1877 27.5942 17.0096 27.6116C17.7552 27.6274 18.5874 27.3262 19.5061 26.7079C25.7763 22.56 29.0129 20.4635 29.2162 20.4183C29.3595 20.3864 29.5582 20.3463 29.6928 20.4635C29.8274 20.5808 29.8142 20.8028 29.7999 20.8624C29.713 21.2255 26.2692 24.3631 24.4871 25.9868C23.9315 26.493 23.5374 26.8521 23.4568 26.9341C23.2763 27.1178 23.0924 27.2915 22.9156 27.4585C21.8237 28.4901 21.0048 29.2637 22.961 30.527C23.901 31.1341 24.6533 31.6361 25.4037 32.137C26.2233 32.6839 27.0407 33.2295 28.0983 33.9089C28.3678 34.082 28.6251 34.2618 28.8758 34.4369C29.8296 35.1033 30.6865 35.7019 31.7451 35.6064C32.3602 35.551 32.9956 34.9841 33.3183 33.2935C34.0809 29.2982 35.5799 20.6414 35.9264 17.0741C35.9567 16.7616 35.9186 16.3616 35.8879 16.186C35.8572 16.0105 35.7931 15.7603 35.5603 15.5751C35.2845 15.3558 34.8587 15.3095 34.6682 15.3126C33.8024 15.3278 32.474 15.7804 26.081 18.3863Z" fill="#00FF75"/>
</svg>
