<svg width="423" height="375" viewBox="0 0 423 375" fill="none" xmlns="http://www.w3.org/2000/svg">
<path d="M411 8.99999L410.219 10.8412L411 8.99999ZM295 201L296.31 202.511L296.376 202.454L296.437 202.391L295 201ZM110.5 361L111.431 362.77L111.636 362.662L111.81 362.511L110.5 361ZM148.5 233.5L149.276 210.419L128.899 221.288L148.5 233.5ZM111.704 126.597C184.846 71.4285 247.414 37.2985 297.789 19.5741C348.239 1.82323 386.152 0.630888 410.219 10.8412L411.781 7.15882C386.348 -3.63091 347.261 -2.07326 296.461 15.8009C245.586 33.7015 182.654 68.0715 109.296 123.403L111.704 126.597ZM410.219 10.8412C414.529 12.6697 416.866 15.7865 417.683 20.107C418.527 24.574 417.75 30.4126 415.439 37.4477C410.825 51.4922 400.401 69.4263 386.897 88.7806C359.929 127.433 321.11 171.146 293.563 199.609L296.437 202.391C324.057 173.854 363.038 129.967 390.178 91.0694C403.728 71.6487 414.435 53.3203 419.239 38.696C421.637 31.3968 422.64 24.7994 421.613 19.3641C420.558 13.7822 417.371 9.53029 411.781 7.15882L410.219 10.8412ZM293.69 199.489L109.19 359.489L111.81 362.511L296.31 202.511L293.69 199.489ZM109.569 359.23C87.6105 370.787 56.7355 377.308 34.2524 360.933C11.7912 344.575 -3.40427 304.566 7.982 220.268L4.018 219.732C-7.39572 304.234 7.49218 346.392 31.8976 364.167C56.2812 381.925 89.0562 374.546 111.431 362.77L109.569 359.23ZM7.982 220.268C13.2779 181.06 21.7205 157.19 31.7694 144.377C36.7583 138.016 42.0811 134.458 47.5564 133.014C53.038 131.569 58.895 132.183 65.0503 134.567C77.4513 139.37 90.6786 151.208 103.431 166.593C116.138 181.923 128.189 200.546 138.286 218.6L141.777 216.647C131.604 198.456 119.419 179.613 106.511 164.04C93.6483 148.522 79.8811 136.021 66.4948 130.837C59.7564 128.227 53.0217 127.436 46.5365 129.147C40.045 130.858 34.0262 135.018 28.6219 141.908C17.8845 155.599 9.33447 180.372 4.018 219.732L7.982 220.268Z" fill="#00FF75"/>
</svg>
