<svg width="50" height="50" viewBox="0 0 50 50" fill="none" xmlns="http://www.w3.org/2000/svg">
<path fill-rule="evenodd" clip-rule="evenodd" d="M19.6875 33.9062C21.25 34.8438 23.125 35.3125 25 35.3125C30.7812 35.3125 35.3125 30.625 35.3125 25.1562C35.3125 22.3438 34.375 19.8437 32.3438 17.8125C30.3125 15.9375 27.8125 14.8438 25 14.8438C19.375 14.8438 14.6875 19.5312 14.6875 25.1562C14.6875 27.0313 15.1562 28.9062 16.25 30.625L16.5625 31.0938L15.4687 34.8438L19.375 33.75L19.6875 33.9062ZM28.4375 26.5625C28.75 26.5625 30.3125 27.3438 30.625 27.5C30.6737 27.5243 30.7223 27.5449 30.7704 27.5652C31.031 27.6752 31.2743 27.7779 31.4063 28.4375C31.5625 28.4375 31.5625 29.0625 31.25 29.8437C31.0938 30.4688 29.8438 31.25 29.2188 31.25C29.1129 31.25 29.0115 31.259 28.9032 31.2685C28.3721 31.3155 27.6749 31.3772 25.4687 30.4688C22.7305 29.3735 20.832 26.7186 20.2989 25.9731C20.2236 25.8678 20.1756 25.8006 20.1562 25.7812C20.1296 25.728 20.0758 25.6431 20.0049 25.5311C19.6592 24.9853 18.9063 23.7965 18.9063 22.5C18.9063 20.9375 19.6875 20.1563 20 19.8437C20.3125 19.5312 20.625 19.5312 20.7812 19.5312H21.4063C21.5625 19.5312 21.875 19.5312 22.0313 20C22.3438 20.625 22.9688 22.1875 22.9688 22.3438C22.9688 22.3958 22.9861 22.4479 23.0035 22.5C23.0382 22.6042 23.0729 22.7083 22.9688 22.8125C22.8906 22.8906 22.8516 22.9687 22.8125 23.0469C22.7734 23.125 22.7344 23.2031 22.6562 23.2813L22.1875 23.75C22.0313 23.9063 21.875 24.0625 22.0313 24.375C22.1875 24.6875 22.8125 25.7812 23.75 26.5625C24.8049 27.4855 25.6372 27.8521 26.0591 28.038C26.1372 28.0724 26.2012 28.1006 26.25 28.125C26.5625 28.125 26.7188 28.125 26.875 27.9688C26.9531 27.8125 27.1484 27.5781 27.3438 27.3438C27.5391 27.1094 27.7344 26.875 27.8125 26.7187C27.9687 26.4063 28.125 26.4063 28.4375 26.5625Z" fill="#00FF75"/>
<path fill-rule="evenodd" clip-rule="evenodd" d="M0 7.8125C0 3.49778 3.49778 0 7.8125 0H42.1875C46.5022 0 50 3.49778 50 7.8125V42.1875C50 46.5022 46.5022 50 42.1875 50H7.8125C3.49778 50 0 46.5022 0 42.1875V7.8125ZM25 12.5C28.2812 12.5 31.4063 13.75 33.75 16.0938C36.0938 18.4375 37.5 21.5625 37.5 24.8438C37.5 31.7188 31.875 37.3438 25 37.3438C22.9687 37.3438 20.9375 36.7188 19.0625 35.7813L12.5 37.5L14.2188 31.25C13.125 29.375 12.5 27.1875 12.5 25C12.5 18.125 18.125 12.5 25 12.5Z" fill="#00FF75"/>
</svg>
